Coordinates
version=1
nRows=11
nColumns=36
inDegrees=yes

Units are S.I. units (second, meters, Newtons, ...)
If the header above contains a line with 'inDegrees', this indicates whether rotational values are in degrees (yes) or radians (no).

endheader
time	pelvis_tilt	pelvis_list	pelvis_rotation	pelvis_tx	pelvis_ty	pelvis_tz	hip_flexion_r	hip_adduction_r	hip_rotation_r	knee_angle_r	knee_angle_r_beta	ankle_angle_r	subtalar_angle_r	mtp_angle_r	hip_flexion_l	hip_adduction_l	hip_rotation_l	knee_angle_l	knee_angle_l_beta	ankle_angle_l	subtalar_angle_l	mtp_angle_l	lumbar_extension	lumbar_bending	lumbar_rotation	arm_flex_r	arm_add_r	arm_rot_r	elbow_flex_r	pro_sup_r	arm_flex_l	arm_add_l	arm_rot_l	elbow_flex_l	pro_sup_l
     13.10000000	     12.19763494	     -1.69471725	      5.25253331	     -0.52694744	      0.60975521	     -0.66597470	     76.69621028	    -19.97171293	      2.57195778	    104.71335650	      1.82759284	     18.75778659	     -4.85638568	     -7.49999987	     81.58106523	     -6.17605328	      7.74466461	    101.69537350	      1.77491910	     11.99938529	     11.65481668	     -7.49999987	    -45.59419889	      5.91500979	     -2.12991873	     24.78910046	    -16.62787924	     18.32309825	    137.71808152	    114.40123066	     39.57957142	    -17.41692818	     42.28368489	    127.85789698	    108.38901514
     13.11000000	     12.98712772	     -1.63435786	      5.06684619	     -0.52891050	      0.61003739	     -0.66544967	     76.01783846	    -19.68933992	      2.65031321	    104.69726000	      1.82731190	     18.60540322	     -4.92568399	     -7.49999987	     80.83618719	     -6.35834858	      7.74987209	    101.71066107	      1.77518592	     11.95320883	     11.62398443	     -7.49999987	    -45.69390021	      5.73300350	     -2.06419650	     24.33336314	    -16.38412482	     18.32665384	    137.57788592	    114.37296355	     38.17269369	    -17.01805924	     41.60844380	    127.81159043	    108.39368292
     13.12000000	     13.69925015	     -1.66964714	      4.87075287	     -0.53084527	      0.61016517	     -0.66495957	     75.39177914	    -19.36915736	      2.62818417	    104.65328690	      1.82654443	     18.42640851	     -5.03888802	     -7.49999987	     80.21514779	     -6.58529337	      7.84367697	    101.74621767	      1.77580650	     11.90128144	     11.59142427	     -7.49999987	    -45.70962586	      5.63674277	     -1.99449330	     23.91881697	    -16.19070867	     18.37697580	    137.38779741	    114.35088439	     36.68748891	    -16.60581416	     40.82104332	    127.73752013	    108.39700441
     13.13000000	     14.40087750	     -1.65692487	      4.67871837	     -0.53277625	      0.61039050	     -0.66439475	     74.79015882	    -19.04285517	      2.67937854	    104.61740673	      1.82591820	     18.25358411	     -5.15243764	     -7.49999987	     79.56554120	     -6.79686685	      7.87447840	    101.75163043	      1.77590097	     11.83114535	     11.55444193	     -7.49999987	    -45.73000809	      5.50084569	     -1.88456516	     23.45942462	    -15.97611419	     18.40336038	    137.22247831	    114.34886630	     35.34670113	    -16.28921102	     40.19581887	    127.62854668	    108.38018026
     13.14000000	     15.12567750	     -1.57297356	      4.48430429	     -0.53478900	      0.61090438	     -0.66376926	     74.15795132	    -18.73889656	      2.79397720	    104.55263665	      1.82478775	     18.06841366	     -5.27918126	     -7.49999987	     78.82485912	     -7.00139703	      7.80753807	    101.70328672	      1.77505721	     11.77357779	     11.49712783	     -7.49999987	    -45.81983092	      5.31778319	     -1.79720564	     23.07085868	    -15.69345440	     18.35356573	    137.08230850	    114.37353472	     34.07472863	    -16.03315261	     39.57281210	    127.48768924	    108.34117618
     13.15000000	     15.79386048	     -1.52850793	      4.27425660	     -0.53675934	      0.61123423	     -0.66315276	     73.59231891	    -18.42995820	      2.87270069	    104.49208225	      1.82373088	     17.87231971	     -5.39032313	     -7.49999987	     78.17052539	     -7.24348519	      7.76582014	    101.67715845	      1.77460119	     11.71047694	     11.45754501	     -7.49999987	    -45.82177439	      5.15890242	     -1.69148240	     22.63322166	    -15.45287812	     18.32491079	    136.88554828	    114.40745272	     32.76755563	    -15.63694430	     38.82699309	    127.30159821	    108.27902860
     13.16000000	     16.36147543	     -1.60585235	      4.08265706	     -0.53870331	      0.61121935	     -0.66257072	     73.10395221	    -18.08667118	      2.82024501	    104.42714377	      1.82259749	     17.65790978	     -5.53046847	     -7.49999987	     77.70313337	     -7.50181829	      7.85803644	    101.67265588	      1.77452260	     11.63587775	     11.45734108	     -7.49999987	    -45.67991076	      5.08955679	     -1.59867514	     22.18889864	    -15.26512604	     18.33474160	    136.60132404	    114.42637285	     31.35596660	    -15.06787860	     37.85593765	    127.09270254	    108.20433103
     13.17000000	     16.88313253	     -1.73666248	      3.93962690	     -0.54067733	      0.61122067	     -0.66202865	     72.62716417	    -17.76436528	      2.67273561	    104.32655888	      1.82084195	     17.24932104	     -6.03512694	     -7.49999987	     77.29768198	     -7.73361259	      8.02585501	    101.65284809	      1.77417689	     11.57241813	     11.53661338	     -7.49999987	    -45.49603973	      5.14485071	     -1.81989552	     22.02796963	    -14.95002002	     18.79014230	    136.02673345	    114.42464066	     29.72185459	    -14.73635146	     36.66259086	    127.18805935	    108.22073526
     13.18000000	     17.47904737	     -1.63026268	      3.75367093	     -0.54271375	      0.61155654	     -0.66136235	     72.14852908	    -17.50826119	      2.81317777	    104.25992591	      1.81967899	     17.13189320	     -6.07962532	     -7.49999987	     76.67705875	     -7.94349771	      7.90359139	    101.56463694	      1.77263732	     11.46905819	     11.53967155	     -7.49999987	    -45.41782733	      4.89450675	     -1.70817793	     21.42096553	    -14.76929625	     18.67520537	    135.77519270	    114.37622293	     28.69142111	    -14.38229332	     36.21694137	    126.91730434	    108.16531333
     13.19000000	     18.11694359	     -1.54909805	      3.59032996	     -0.54482998	      0.61185759	     -0.66071588	     71.61485759	    -17.26945830	      2.91456002	    104.19960014	      1.81862610	     16.97228547	     -6.15685755	     -7.49999987	     76.04152705	     -8.16878690	      7.79130306	    101.48137451	      1.77118411	     11.36560733	     11.55226626	     -7.49999987	    -45.38253064	      4.69934565	     -1.60769952	     20.94791784	    -14.62024683	     18.53819175	    135.48600881	    114.32448173	     27.68630157	    -14.08107741	     35.72675472	    126.71510705	    108.09944928
     13.20000000	     18.75374991	     -1.53999600	      3.43508202	     -0.54692880	      0.61197525	     -0.66011896	     71.07505173	    -17.03213063	      2.92673044	    104.14222675	      1.81762475	     16.78971627	     -6.25448463	     -7.49999987	     75.44645522	     -8.40838296	      7.75410185	    101.42269835	      1.77016002	     11.27674074	     11.56180842	     -7.49999987	    -45.34317338	      4.59665397	     -1.49705498	     20.61759819	    -14.52845940	     18.36694817	    135.18482037	    114.30018499	     26.70438571	    -13.73442409	     35.19620332	    126.55499213	    108.02883138
